<mxfile host="65bd71144e">
    <diagram id="VqRzNN3JH3XCM-x7S1QL" name="Model">
        <mxGraphModel dx="776" dy="569" grid="1" gridSize="10" guides="1" tooltips="1" connect="1" arrows="1" fold="1" page="1" pageScale="1" pageWidth="850" pageHeight="1100" background="#ffffff" math="0" shadow="0">
            <root>
                <mxCell id="0"/>
                <mxCell id="1" parent="0"/>
                <mxCell id="3" value="" style="rounded=0;whiteSpace=wrap;html=1;fillColor=#eeeeee;strokeColor=#36393d;" vertex="1" parent="1">
                    <mxGeometry x="10" y="30" width="670" height="460" as="geometry"/>
                </mxCell>
                <mxCell id="Drvt8Vxp_YQYZ3Zg-MpE-1" value="Salon" style="swimlane;fontStyle=1;align=center;verticalAlign=top;childLayout=stackLayout;horizontal=1;startSize=26;horizontalStack=0;resizeParent=1;resizeParentMax=0;resizeLast=0;collapsible=1;marginBottom=0;labelBackgroundColor=none;fillColor=#f5f5f5;fontColor=#333333;strokeColor=#666666;" parent="1" vertex="1">
                    <mxGeometry x="220" y="90" width="160" height="100" as="geometry"/>
                </mxCell>
                <mxCell id="Drvt8Vxp_YQYZ3Zg-MpE-2" value="+ stylists: list&#10;+ waiting_customers: list&#10;+ clock: Clock&#10;+ is_open: bool" style="text;strokeColor=none;fillColor=none;align=left;verticalAlign=top;spacingLeft=4;spacingRight=4;overflow=hidden;rotatable=0;points=[[0,0.5],[1,0.5]];portConstraint=eastwest;fontColor=#000000;" parent="Drvt8Vxp_YQYZ3Zg-MpE-1" vertex="1">
                    <mxGeometry y="26" width="160" height="74" as="geometry"/>
                </mxCell>
                <mxCell id="Drvt8Vxp_YQYZ3Zg-MpE-6" value="Customer" style="swimlane;fontStyle=1;align=center;verticalAlign=top;childLayout=stackLayout;horizontal=1;startSize=26;horizontalStack=0;resizeParent=1;resizeParentMax=0;resizeLast=0;collapsible=1;marginBottom=0;fillColor=#f5f5f5;fontColor=#333333;strokeColor=#666666;" parent="1" vertex="1">
                    <mxGeometry x="360" y="360" width="160" height="70" as="geometry"/>
                </mxCell>
                <mxCell id="Drvt8Vxp_YQYZ3Zg-MpE-7" value="+ name: str&#10;+ satisfied: bool" style="text;strokeColor=none;fillColor=none;align=left;verticalAlign=top;spacingLeft=4;spacingRight=4;overflow=hidden;rotatable=0;points=[[0,0.5],[1,0.5]];portConstraint=eastwest;fontColor=#000000;" parent="Drvt8Vxp_YQYZ3Zg-MpE-6" vertex="1">
                    <mxGeometry y="26" width="160" height="44" as="geometry"/>
                </mxCell>
                <mxCell id="Drvt8Vxp_YQYZ3Zg-MpE-10" value="Stylist" style="swimlane;fontStyle=1;align=center;verticalAlign=top;childLayout=stackLayout;horizontal=1;startSize=26;horizontalStack=0;resizeParent=1;resizeParentMax=0;resizeLast=0;collapsible=1;marginBottom=0;fillColor=#f5f5f5;fontColor=#333333;strokeColor=#666666;" parent="1" vertex="1">
                    <mxGeometry x="30" y="362" width="160" height="90" as="geometry"/>
                </mxCell>
                <mxCell id="Drvt8Vxp_YQYZ3Zg-MpE-11" value="+ name: str&#10;+ customer: Customer&#10;+ minutes: int" style="text;strokeColor=none;fillColor=none;align=left;verticalAlign=top;spacingLeft=4;spacingRight=4;overflow=hidden;rotatable=0;points=[[0,0.5],[1,0.5]];portConstraint=eastwest;fontColor=#000000;" parent="Drvt8Vxp_YQYZ3Zg-MpE-10" vertex="1">
                    <mxGeometry y="26" width="160" height="64" as="geometry"/>
                </mxCell>
                <mxCell id="Drvt8Vxp_YQYZ3Zg-MpE-14" value="Clock&#10;" style="swimlane;fontStyle=1;align=center;verticalAlign=top;childLayout=stackLayout;horizontal=1;startSize=26;horizontalStack=0;resizeParent=1;resizeParentMax=0;resizeLast=0;collapsible=1;marginBottom=0;fillColor=#f5f5f5;fontColor=#333333;strokeColor=#666666;" parent="1" vertex="1">
                    <mxGeometry x="500" y="160" width="160" height="90" as="geometry"/>
                </mxCell>
                <mxCell id="Drvt8Vxp_YQYZ3Zg-MpE-15" value="+ hour: int&#10;+ mins: int&#10;+ active: bool" style="text;strokeColor=none;fillColor=none;align=left;verticalAlign=top;spacingLeft=4;spacingRight=4;overflow=hidden;rotatable=0;points=[[0,0.5],[1,0.5]];portConstraint=eastwest;fontColor=#000000;" parent="Drvt8Vxp_YQYZ3Zg-MpE-14" vertex="1">
                    <mxGeometry y="26" width="160" height="64" as="geometry"/>
                </mxCell>
                <mxCell id="Drvt8Vxp_YQYZ3Zg-MpE-25" value="&lt;font style=&quot;background-color: rgb(255, 255, 255);&quot; color=&quot;#000000&quot;&gt;1&lt;/font&gt;" style="endArrow=open;html=1;endSize=12;startArrow=diamondThin;startSize=14;startFill=0;edgeStyle=orthogonalEdgeStyle;align=left;verticalAlign=bottom;exitX=1;exitY=0.5;exitDx=0;exitDy=0;entryX=-0.008;entryY=0.358;entryDx=0;entryDy=0;entryPerimeter=0;strokeColor=#000000;" parent="1" source="Drvt8Vxp_YQYZ3Zg-MpE-2" target="Drvt8Vxp_YQYZ3Zg-MpE-15" edge="1">
                    <mxGeometry x="-0.7709" y="3" relative="1" as="geometry">
                        <mxPoint x="310" y="260" as="sourcePoint"/>
                        <mxPoint x="440" y="180" as="targetPoint"/>
                        <Array as="points">
                            <mxPoint x="430" y="153"/>
                            <mxPoint x="430" y="209"/>
                        </Array>
                        <mxPoint as="offset"/>
                    </mxGeometry>
                </mxCell>
                <mxCell id="Drvt8Vxp_YQYZ3Zg-MpE-27" value="" style="endArrow=open;html=1;endSize=12;startArrow=diamondThin;startSize=14;startFill=0;edgeStyle=orthogonalEdgeStyle;exitX=0.642;exitY=1.012;exitDx=0;exitDy=0;exitPerimeter=0;fontColor=#000000;strokeColor=#000000;" parent="1" source="Drvt8Vxp_YQYZ3Zg-MpE-2" edge="1">
                    <mxGeometry x="0.1963" y="30" relative="1" as="geometry">
                        <mxPoint x="270" y="300" as="sourcePoint"/>
                        <mxPoint x="370" y="360" as="targetPoint"/>
                        <mxPoint y="-5" as="offset"/>
                    </mxGeometry>
                </mxCell>
                <mxCell id="Drvt8Vxp_YQYZ3Zg-MpE-28" value="&lt;font style=&quot;background-color: rgb(255, 255, 255);&quot; color=&quot;#000000&quot;&gt;0..n&lt;/font&gt;" style="edgeLabel;resizable=0;html=1;align=left;verticalAlign=top;" parent="Drvt8Vxp_YQYZ3Zg-MpE-27" connectable="0" vertex="1">
                    <mxGeometry x="-1" relative="1" as="geometry">
                        <mxPoint x="7" as="offset"/>
                    </mxGeometry>
                </mxCell>
                <mxCell id="Drvt8Vxp_YQYZ3Zg-MpE-29" value="&lt;font style=&quot;background-color: rgb(255, 255, 255);&quot; color=&quot;#000000&quot;&gt;1&lt;/font&gt;" style="edgeLabel;resizable=0;html=1;align=right;verticalAlign=top;" parent="Drvt8Vxp_YQYZ3Zg-MpE-27" connectable="0" vertex="1">
                    <mxGeometry x="1" relative="1" as="geometry">
                        <mxPoint x="20" y="-30" as="offset"/>
                    </mxGeometry>
                </mxCell>
                <mxCell id="Drvt8Vxp_YQYZ3Zg-MpE-45" value="" style="endArrow=open;html=1;endSize=12;startArrow=diamondThin;startSize=14;startFill=0;edgeStyle=orthogonalEdgeStyle;entryX=0.5;entryY=0;entryDx=0;entryDy=0;exitX=-0.008;exitY=0.229;exitDx=0;exitDy=0;exitPerimeter=0;strokeColor=#000000;" parent="1" source="Drvt8Vxp_YQYZ3Zg-MpE-2" target="Drvt8Vxp_YQYZ3Zg-MpE-10" edge="1">
                    <mxGeometry relative="1" as="geometry">
                        <mxPoint x="190" y="130" as="sourcePoint"/>
                        <mxPoint x="430" y="300" as="targetPoint"/>
                        <Array as="points">
                            <mxPoint x="110" y="133"/>
                        </Array>
                    </mxGeometry>
                </mxCell>
                <mxCell id="Drvt8Vxp_YQYZ3Zg-MpE-46" value="&lt;font style=&quot;&quot; color=&quot;#000000&quot;&gt;4&lt;/font&gt;" style="edgeLabel;resizable=0;html=1;align=left;verticalAlign=top;labelBackgroundColor=none;" parent="Drvt8Vxp_YQYZ3Zg-MpE-45" connectable="0" vertex="1">
                    <mxGeometry x="-1" relative="1" as="geometry">
                        <mxPoint x="-19" y="-33" as="offset"/>
                    </mxGeometry>
                </mxCell>
                <mxCell id="Drvt8Vxp_YQYZ3Zg-MpE-47" value="&lt;font&gt;1&lt;/font&gt;" style="edgeLabel;resizable=0;html=1;align=right;verticalAlign=top;fontColor=#000000;labelBackgroundColor=none;" parent="Drvt8Vxp_YQYZ3Zg-MpE-45" connectable="0" vertex="1">
                    <mxGeometry x="1" relative="1" as="geometry">
                        <mxPoint x="20" y="-30" as="offset"/>
                    </mxGeometry>
                </mxCell>
                <mxCell id="Drvt8Vxp_YQYZ3Zg-MpE-49" value="&lt;font style=&quot;background-color: rgb(255, 255, 255);&quot; color=&quot;#000000&quot;&gt;1&lt;/font&gt;" style="endArrow=open;html=1;endSize=12;startArrow=diamondThin;startSize=14;startFill=0;edgeStyle=orthogonalEdgeStyle;align=left;verticalAlign=bottom;exitX=1;exitY=0.5;exitDx=0;exitDy=0;entryX=-0.008;entryY=0.362;entryDx=0;entryDy=0;entryPerimeter=0;strokeColor=#000000;" parent="1" source="Drvt8Vxp_YQYZ3Zg-MpE-11" target="Drvt8Vxp_YQYZ3Zg-MpE-7" edge="1">
                    <mxGeometry x="-0.8929" y="10" relative="1" as="geometry">
                        <mxPoint x="270" y="300" as="sourcePoint"/>
                        <mxPoint x="350" y="410" as="targetPoint"/>
                        <Array as="points">
                            <mxPoint x="280" y="420"/>
                            <mxPoint x="280" y="402"/>
                        </Array>
                        <mxPoint as="offset"/>
                    </mxGeometry>
                </mxCell>
            </root>
        </mxGraphModel>
    </diagram>
</mxfile>